# xmcd
#
# Track frame offsets: 
#        150
#        13069
#        27083
#        43742
#        59132
#        71847
#        82422
#        101099
#        116064
#        132939
#        152139
#        166536
#        179796
#        190359
#        228831
#
# Disc length: 3404 seconds
#
# Revision: 4
# Processed by: cddbd v1.5.2PL0 Copyright (c) Steve Scherf et al.
# Submitted via: ExactAudioCopy v0.90b4
#
DISCID=d90d4a0f
DTITLE=Hayseed Dixie - Let There Be Rockgrass
DYEAR=2004
DGENRE=Bluegrass
TTITLE0=Dirty Deeds Done Dirt Cheap (Live)
TTITLE1=Fat Bottom Girls
TTITLE2=Whole Lotta Rosie
TTITLE3=You Shook Me All Night Long (Live)
TTITLE4=I Believe In A Thing Called Love
TTITLE5=Ace Of Spades
TTITLE6=Detroit Rock City
TTITLE7=Corn Liquor
TTITLE8=Feel Like Making Love
TTITLE9=Walk This Way
TTITLE10=Touch Too Much
TTITLE11=Centerfold
TTITLE12=I'm Keeping Your Poop
TTITLE13=Highway To Hell (Live)
TTITLE14=Will The Circle Be Unbroken (Live)
EXTD=
EXTT0=
EXTT1=
EXTT2=
EXTT3=
EXTT4=
EXTT5=
EXTT6=
EXTT7=
EXTT8=
EXTT9=
EXTT10=
EXTT11=
EXTT12=
EXTT13=
EXTT14=
PLAYORDER=
